<svg width="699" height="231" viewBox="0 0 699 231" fill="none" xmlns="http://www.w3.org/2000/svg">
<path d="M312.517 124H319.062C316.097 107.278 301.676 89.8409 278 89.8409C251.716 89.8409 233.818 111.114 233.818 143.636C233.818 176.057 251.562 197.432 278.562 197.432C302.545 197.432 319.778 180.557 319.778 152.841V146.909H280.199V152.841H313.54C313.386 176.875 298.812 191.295 278.562 191.295C255.551 191.295 240.108 172.631 240.108 143.636C240.108 114.386 255.756 95.9773 278 95.9773C297.381 95.9773 309.347 109.886 312.517 124ZM364.344 197.688C376.821 197.688 385.616 190.631 389.707 181.835H390.168V196H396.406V141.131C396.406 123.949 383.622 116.278 369.662 116.278C357.543 116.278 346.19 121.75 341.69 133.051L347.571 135.25C350.639 127.477 358.616 122.006 369.815 122.006C382.497 122.006 390.168 129.318 390.168 140.722V143.994C390.168 150.028 381.372 150.642 369.406 152.074C348.44 154.631 339.44 161.278 339.44 174.369C339.44 189.301 350.793 197.688 364.344 197.688ZM364.957 191.909C353.963 191.909 345.679 185.312 345.679 174.574C345.679 164.858 352.838 159.642 370.02 157.597C377.69 156.727 386.895 155.295 390.168 152.585V164.142C390.168 180.097 379.685 191.909 364.957 191.909ZM422.562 196H428.801V144.455C428.801 131.466 436.625 122.21 449.051 122.21C461.375 122.21 467.46 130.648 467.46 142.869V196H473.699V143.79C473.699 131.261 480.858 122.21 493.847 122.21C505.966 122.21 512.358 130.136 512.358 143.278V196H518.597V143.278C518.597 126.659 510.364 116.432 495.176 116.432C483.517 116.432 475.284 122.364 472.216 131.619H471.653C468.585 122.312 461.682 116.432 450.33 116.432C439.949 116.432 432.278 121.443 429.261 129.318H428.648V117.455H422.562V196ZM573.683 197.636C593.115 197.636 607.229 180.557 607.229 156.983C607.229 133.409 593.064 116.278 573.683 116.278C554.251 116.278 540.138 133.358 540.138 156.983C540.138 180.557 554.251 197.636 573.683 197.636ZM573.683 191.858C557.166 191.858 546.325 176.466 546.325 156.983C546.325 137.602 557.268 122.108 573.683 122.108C590.149 122.108 601.041 137.551 601.041 156.983C601.041 176.466 590.2 191.858 573.683 191.858ZM679.037 168.131C679.037 182.142 668.605 190.938 656.332 190.938C643.753 190.938 634.957 182.091 634.957 169V117.455H628.719V169.256C628.719 186.438 639.662 197.023 655.054 197.023C666.253 197.023 674.844 191.347 678.526 183.267H679.037V196H685.276V117.455H679.037V168.131Z" fill="#1E293B"/>
<path d="M28.9091 129.42H32.8977V110.739H51.5795V106.716H32.8977V88.0341H28.9091V106.716H10.2273V110.739H28.9091V129.42Z" fill="#DC4B78"/>
<path d="M190.909 197.42H194.898V178.739H213.58V174.716H194.898V156.034H190.909V174.716H172.227V178.739H190.909V197.42Z" fill="#DC4B78"/>
<path d="M176.909 86.4205H180.898V67.7386H199.58V63.7159H180.898V45.0341H176.909V63.7159H158.227V67.7386H176.909V86.4205Z" fill="#DC4B78"/>
<g clip-path="url(#clip0)">
<path d="M79.6236 114.533L106.481 87.6834L118.408 114.533H79.6236Z" fill="#DC4B78"/>
<path d="M150.957 86L125.048 111.908L113.535 86H150.957Z" fill="#DC4B78"/>
<path d="M50.6836 143.48L77.5335 155.407V116.623L50.6836 143.48Z" fill="#DC4B78"/>
<path d="M74.9083 162.048L49 150.535V187.957L74.9083 162.048Z" fill="#DC4B78"/>
<path d="M84.6667 152.29L115.29 121.667H84.6667V152.29Z" fill="#DC4B78"/>
<path d="M156 183.948L128.13 118.913L156 91.0433V183.948Z" fill="#DC4B78"/>
<path d="M149.209 186.209L122.694 124.349L87.3487 159.694L149.209 186.209Z" fill="#DC4B78"/>
<path d="M81.913 165.13L146.948 193H54.0431L81.913 165.13Z" fill="#DC4B78"/>
</g>
<defs>
<clipPath id="clip0">
<rect width="107" height="107" fill="white" transform="translate(49 86)"/>
</clipPath>
</defs>
</svg>
