<svg width="676" height="153" viewBox="0 0 676 153" fill="none" xmlns="http://www.w3.org/2000/svg">
<path d="M302.29 78.9659H308.835C305.87 62.2439 291.449 44.8068 267.773 44.8068C241.489 44.8068 223.591 66.0799 223.591 98.6019C223.591 131.023 241.335 152.398 268.335 152.398C292.318 152.398 309.551 135.523 309.551 107.807V101.875H269.972V107.807H303.313C303.159 131.841 288.585 146.261 268.335 146.261C245.324 146.261 229.881 127.597 229.881 98.6019C229.881 69.3519 245.529 50.9432 267.773 50.9432C287.154 50.9432 299.12 64.8519 302.29 78.9659ZM354.117 152.654C366.594 152.654 375.389 145.597 379.48 136.801H379.941V150.966H386.179V96.0969C386.179 78.9149 373.395 71.2439 359.435 71.2439C347.316 71.2439 335.963 76.7159 331.463 88.0169L337.344 90.2159C340.412 82.4429 348.389 76.9719 359.588 76.9719C372.27 76.9719 379.941 84.2839 379.941 95.6879V98.9599C379.941 104.994 371.145 105.608 359.179 107.04C338.213 109.597 329.213 116.244 329.213 129.335C329.213 144.267 340.566 152.654 354.117 152.654ZM354.73 146.875C343.736 146.875 335.452 140.278 335.452 129.54C335.452 119.824 342.611 114.608 359.793 112.563C367.463 111.693 376.668 110.261 379.941 107.551V119.108C379.941 135.063 369.458 146.875 354.73 146.875ZM412.335 150.966H418.574V99.4209C418.574 86.4319 426.398 77.1759 438.824 77.1759C451.148 77.1759 457.233 85.6139 457.233 97.8349V150.966H463.472V98.7559C463.472 86.2269 470.631 77.1759 483.62 77.1759C495.739 77.1759 502.131 85.1019 502.131 98.2439V150.966H508.37V98.2439C508.37 81.6249 500.137 71.3979 484.949 71.3979C473.29 71.3979 465.057 77.3299 461.989 86.5849H461.426C458.358 77.2779 451.455 71.3979 440.103 71.3979C429.722 71.3979 422.051 76.4089 419.034 84.2839H418.421V72.4209H412.335V150.966ZM563.456 152.602C582.888 152.602 597.002 135.523 597.002 111.949C597.002 88.3749 582.837 71.2439 563.456 71.2439C544.024 71.2439 529.911 88.3239 529.911 111.949C529.911 135.523 544.024 152.602 563.456 152.602ZM563.456 146.824C546.939 146.824 536.098 131.432 536.098 111.949C536.098 92.5679 547.041 77.0739 563.456 77.0739C579.922 77.0739 590.814 92.5169 590.814 111.949C590.814 131.432 579.973 146.824 563.456 146.824ZM668.81 123.097C668.81 137.108 658.378 145.904 646.105 145.904C633.526 145.904 624.73 137.057 624.73 123.966V72.4209H618.492V124.222C618.492 141.404 629.435 151.989 644.827 151.989C656.026 151.989 664.617 146.313 668.299 138.233H668.81V150.966H675.049V72.4209H668.81V123.097Z" fill="#1E293B"/>
<path d="M18.6818 84.386H22.6704V65.705H41.3522V61.682H22.6704V43.0001H18.6818V61.682H0V65.705H18.6818V84.386Z" fill="#DC4B78"/>
<path d="M180.682 152.386H184.671V133.705H203.353V129.682H184.671V111H180.682V129.682H162V133.705H180.682V152.386Z" fill="#DC4B78"/>
<path d="M166.682 41.3864H170.671V22.7045H189.353V18.6818H170.671V0H166.682V18.6818H148V22.7045H166.682V41.3864Z" fill="#DC4B78"/>
<path d="M69.3963 69.4989L96.2537 42.6493L108.181 69.4989H69.3963Z" fill="#DC4B78"/>
<path d="M140.73 40.9659L114.821 66.8739L103.308 40.9659H140.73Z" fill="#DC4B78"/>
<path d="M40.4563 98.4459L67.3062 110.373V71.5889L40.4563 98.4459Z" fill="#DC4B78"/>
<path d="M64.681 117.014L38.7727 105.501V142.923L64.681 117.014Z" fill="#DC4B78"/>
<path d="M74.4394 107.256L105.063 76.6329H74.4394V107.256Z" fill="#DC4B78"/>
<path d="M145.773 138.914L117.903 73.8789L145.773 46.0092V138.914Z" fill="#DC4B78"/>
<path d="M138.982 141.175L112.467 79.3149L77.1214 114.66L138.982 141.175Z" fill="#DC4B78"/>
<path d="M71.6857 120.096L136.721 147.966H43.8158L71.6857 120.096Z" fill="#DC4B78"/>
</svg>
