<svg width="676" height="153" viewBox="0 0 676 153" fill="none" xmlns="http://www.w3.org/2000/svg">
<path d="M302.517 79H309.062C306.097 62.278 291.676 44.8409 268 44.8409C241.716 44.8409 223.818 66.114 223.818 98.636C223.818 131.057 241.562 152.432 268.562 152.432C292.545 152.432 309.778 135.557 309.778 107.841V101.909H270.199V107.841H303.54C303.386 131.875 288.812 146.295 268.562 146.295C245.551 146.295 230.108 127.631 230.108 98.636C230.108 69.386 245.756 50.9773 268 50.9773C287.381 50.9773 299.347 64.886 302.517 79ZM354.344 152.688C366.821 152.688 375.616 145.631 379.707 136.835H380.168V151H386.406V96.131C386.406 78.949 373.622 71.278 359.662 71.278C347.543 71.278 336.19 76.75 331.69 88.051L337.571 90.25C340.639 82.477 348.616 77.006 359.815 77.006C372.497 77.006 380.168 84.318 380.168 95.722V98.994C380.168 105.028 371.372 105.642 359.406 107.074C338.44 109.631 329.44 116.278 329.44 129.369C329.44 144.301 340.793 152.688 354.344 152.688ZM354.957 146.909C343.963 146.909 335.679 140.312 335.679 129.574C335.679 119.858 342.838 114.642 360.02 112.597C367.69 111.727 376.895 110.295 380.168 107.585V119.142C380.168 135.097 369.685 146.909 354.957 146.909ZM412.562 151H418.801V99.455C418.801 86.466 426.625 77.21 439.051 77.21C451.375 77.21 457.46 85.648 457.46 97.869V151H463.699V98.79C463.699 86.261 470.858 77.21 483.847 77.21C495.966 77.21 502.358 85.136 502.358 98.278V151H508.597V98.278C508.597 81.659 500.364 71.432 485.176 71.432C473.517 71.432 465.284 77.364 462.216 86.619H461.653C458.585 77.312 451.682 71.432 440.33 71.432C429.949 71.432 422.278 76.443 419.261 84.318H418.648V72.455H412.562V151ZM563.683 152.636C583.115 152.636 597.229 135.557 597.229 111.983C597.229 88.409 583.064 71.278 563.683 71.278C544.251 71.278 530.138 88.358 530.138 111.983C530.138 135.557 544.251 152.636 563.683 152.636ZM563.683 146.858C547.166 146.858 536.325 131.466 536.325 111.983C536.325 92.602 547.268 77.108 563.683 77.108C580.149 77.108 591.041 92.551 591.041 111.983C591.041 131.466 580.2 146.858 563.683 146.858ZM669.037 123.131C669.037 137.142 658.605 145.938 646.332 145.938C633.753 145.938 624.957 137.091 624.957 124V72.455H618.719V124.256C618.719 141.438 629.662 152.023 645.054 152.023C656.253 152.023 664.844 146.347 668.526 138.267H669.037V151H675.276V72.455H669.037V123.131Z" fill="white"/>
<path d="M18.9091 84.42H22.8977V65.739H41.5795V61.716H22.8977V43.0341H18.9091V61.716H0.227303V65.739H18.9091V84.42Z" fill="#DC4B78"/>
<path d="M180.909 152.42H184.898V133.739H203.58V129.716H184.898V111.034H180.909V129.716H162.227V133.739H180.909V152.42Z" fill="#DC4B78"/>
<path d="M166.909 41.4205H170.898V22.7386H189.58V18.7159H170.898V0.0341187H166.909V18.7159H148.227V22.7386H166.909V41.4205Z" fill="#DC4B78"/>
<path d="M69.6235 69.533L96.481 42.6835L108.407 69.533H69.6235Z" fill="#DC4B78"/>
<path d="M140.957 41L115.048 66.908L103.535 41H140.957Z" fill="#DC4B78"/>
<path d="M40.6836 98.48L67.5335 110.407V71.623L40.6836 98.48Z" fill="#DC4B78"/>
<path d="M64.9083 117.048L39 105.535V142.957L64.9083 117.048Z" fill="#DC4B78"/>
<path d="M74.6666 107.29L105.29 76.667H74.6666V107.29Z" fill="#DC4B78"/>
<path d="M146 138.948L118.13 73.913L146 46.0432V138.948Z" fill="#DC4B78"/>
<path d="M139.209 141.209L112.694 79.349L77.3486 114.695L139.209 141.209Z" fill="#DC4B78"/>
<path d="M71.913 120.13L136.948 148H44.0431L71.913 120.13Z" fill="#DC4B78"/>
</svg>
